<svg width="960" height="620" viewBox="0 0 960 620" fill="none" xmlns="http://www.w3.org/2000/svg">
<rect width="960" height="620" rx="40" fill="#F4F8FF"/>
<rect x="56" y="66" width="848" height="488" rx="32" fill="white" stroke="#DCE6F8" stroke-width="4"/>
<circle cx="180" cy="180" r="72" fill="#E8F1FF"/>
<rect x="152" y="140" width="56" height="80" rx="20" fill="#5B98FF"/>
<rect x="130" y="162" width="100" height="28" rx="14" fill="#5B98FF"/>
<rect x="290" y="135" width="300" height="28" rx="14" fill="#D9E6FF"/>
<rect x="290" y="180" width="240" height="20" rx="10" fill="#E7EEFB"/>
<rect x="290" y="214" width="280" height="20" rx="10" fill="#E7EEFB"/>
<rect x="290" y="248" width="200" height="20" rx="10" fill="#E7EEFB"/>
<rect x="110" y="320" width="740" height="180" rx="24" fill="#F8FBFF" stroke="#E1EAF9" stroke-width="3"/>
<rect x="150" y="358" width="170" height="98" rx="16" fill="#E9F5F3"/>
<path d="M200 407h70" stroke="#4CBCA9" stroke-width="12" stroke-linecap="round"/>
<path d="M235 372v70" stroke="#4CBCA9" stroke-width="12" stroke-linecap="round"/>
<rect x="355" y="358" width="180" height="98" rx="16" fill="#EBF2FF"/>
<path d="M395 430c20-40 30-40 50 0s30 40 50 0" stroke="#6C9FFF" stroke-width="10" stroke-linecap="round"/>
<rect x="570" y="358" width="240" height="98" rx="16" fill="#F2F6FD"/>
<circle cx="620" cy="407" r="20" fill="#7BB2FF"/>
<rect x="650" y="396" width="120" height="22" rx="11" fill="#D9E6FF"/>
</svg>
